<svg xmlns="http://www.w3.org/2000/svg" xmlns:xlink="http://www.w3.org/1999/xlink" xmlns:lucid="lucid" width="1380" height="840"><g transform="translate(-280 -280)" lucid:page-tab-id="0_0"><path d="M520 700c0 33.14-49.25 60-110 60s-110-26.86-110-60 49.25-60 110-60 110 26.86 110 60z" stroke="#5e5e5e" stroke-width="3" fill="#c1e4f7" fill-opacity=".75"/><use xlink:href="#a" transform="matrix(1,0,0,1,305,645) translate(50.14080246913581 43.61805555555556)"/><use xlink:href="#b" transform="matrix(1,0,0,1,305,645) translate(37.98648148148148 72.95138888888889)"/><path d="M1640 700c0 33.14-49.25 60-110 60s-110-26.86-110-60 49.25-60 110-60 110 26.86 110 60z" stroke="#5e5e5e" stroke-width="3" fill="#c1e4f7" fill-opacity=".75"/><use xlink:href="#c" transform="matrix(1,0,0,1,1425,645) translate(31.943271604938268 43.61805555555556)"/><use xlink:href="#d" transform="matrix(1,0,0,1,1425,645) translate(114.30746913580248 43.61805555555556)"/><use xlink:href="#e" transform="matrix(1,0,0,1,1425,645) translate(82.69944444444445 72.95138888888889)"/><path d="M839.67 646c0-3.3 2.68-6 6-6H1094c3.3 0 6 2.7 6 6v108c0 3.3-2.7 6-6 6H845.67c-3.32 0-6-2.7-6-6z" stroke="#5e5e5e" stroke-width="3" fill="#449105"/><use xlink:href="#f" transform="matrix(1,0,0,1,851.6666666666667,652) translate(50.45061728395062 53.111111111111114)"/><use xlink:href="#g" transform="matrix(1,0,0,1,851.6666666666667,652) translate(157.74074074074076 53.111111111111114)"/><path d="M1400 1040c0 33.14-49.25 60-110 60s-110-26.86-110-60 49.25-60 110-60 110 26.86 110 60z" stroke="#5e5e5e" stroke-width="3" fill="#c1e4f7" fill-opacity=".75"/><use xlink:href="#h" transform="matrix(1,0,0,1,1185,985) translate(56.86302469135802 43.61805555555556)"/><use xlink:href="#i" transform="matrix(1,0,0,1,1185,985) translate(58.96796296296296 72.95138888888889)"/><path d="M720 1040c0 33.14-49.25 60-110 60s-110-26.86-110-60 49.25-60 110-60 110 26.86 110 60z" stroke="#5e5e5e" stroke-width="3" fill="#c1e4f7" fill-opacity=".75"/><use xlink:href="#j" transform="matrix(1,0,0,1,505,985) translate(44.66975308641976 60.80555555555556)"/><use xlink:href="#k" transform="matrix(1,0,0,1,505,985) translate(112.50308641975309 60.80555555555556)"/><path d="M780 360c0 33.14-49.25 60-110 60s-110-26.86-110-60 49.25-60 110-60 110 26.86 110 60z" stroke="#5e5e5e" stroke-width="3" fill="#c1e4f7" fill-opacity=".75"/><use xlink:href="#l" transform="matrix(1,0,0,1,565,305) translate(14.861111111111114 60.80555555555556)"/><use xlink:href="#m" transform="matrix(1,0,0,1,565,305) translate(108.29320987654322 60.80555555555556)"/><path d="M1360 360c0 33.14-49.25 60-110 60s-110-26.86-110-60 49.25-60 110-60 110 26.86 110 60z" stroke="#5e5e5e" stroke-width="3" fill="#c1e4f7" fill-opacity=".75"/><use xlink:href="#n" transform="matrix(1,0,0,1,1145,305) translate(44.029691358024685 43.61805555555556)"/><use xlink:href="#o" transform="matrix(1,0,0,1,1145,305) translate(118.51734567901234 43.61805555555556)"/><use xlink:href="#p" transform="matrix(1,0,0,1,1145,305) translate(41.31364197530865 72.95138888888889)"/><path d="M716.88 416.75L892.5 624.37" stroke="#5e5e5e" stroke-width="2" fill="none"/><path d="M717.66 416.12l-1.53 1.3-1-1.18 2.2-.5z" fill="#5e5e5e"/><path d="M902.35 636.03l-12.75-7.9 7.08-6z" stroke="#5e5e5e" stroke-width="2" fill="#5e5e5e"/><path d="M871.76 637.77L682.62 435.03" stroke="#5e5e5e" stroke-width="2" fill="none"/><path d="M873.8 638.5h-2.72l-.07-.07 1.48-1.36z" fill="#5e5e5e"/><path d="M672.2 423.87l13.13 7.27-6.78 6.32z" stroke="#5e5e5e" stroke-width="2" fill="#5e5e5e"/><path d="M1203.4 416.8l-171.18 207.43" stroke="#5e5e5e" stroke-width="2" fill="none"/><path d="M1205.1 416.3l-.94 1.16-1.55-1.27.37-.44z" fill="#5e5e5e"/><path d="M1022.5 636l5.5-13.95 7.16 5.9z" stroke="#5e5e5e" stroke-width="2" fill="#5e5e5e"/><path d="M1058.44 637.75l179.3-202.4" stroke="#5e5e5e" stroke-width="2" fill="none"/><path d="M1059.2 638.4l-.1.1h-2.66l1.27-1.43z" fill="#5e5e5e"/><path d="M1247.85 423.92l-6 13.75-6.92-6.14z" stroke="#5e5e5e" stroke-width="2" fill="#5e5e5e"/><path d="M513.7 724.05h305.96" stroke="#5e5e5e" stroke-width="2" fill="none"/><path d="M513.72 725.05h-1.8l1.35-1.74.18-.25h.27z" fill="#5e5e5e"/><path d="M834.93 724.05l-14.27 4.64v-9.28z" stroke="#5e5e5e" stroke-width="2" fill="#5e5e5e"/><path d="M837.17 668.9h-312.4" stroke="#5e5e5e" stroke-width="2" fill="none"/><path d="M838.17 669.9h-1.03v-2h1.03z" fill="#5e5e5e"/><path d="M509.5 668.9l14.27-4.65v9.27z" stroke="#5e5e5e" stroke-width="2" fill="#5e5e5e"/><path d="M1430.08 671.53H1120" stroke="#5e5e5e" stroke-width="2" fill="none"/><path d="M1431.74 670.82l-1.6 1.7h-.08v-2h1.98z" fill="#5e5e5e"/><path d="M1104.74 671.53l14.26-4.64v9.26z" stroke="#5e5e5e" stroke-width="2" fill="#5e5e5e"/><path d="M1102.5 728.9h310.48" stroke="#5e5e5e" stroke-width="2" fill="none"/><path d="M1102.53 729.9h-1.03v-2h1.03z" fill="#5e5e5e"/><path d="M1428.24 728.9l-14.26 4.62v-9.27z" stroke="#5e5e5e" stroke-width="2" fill="#5e5e5e"/><path d="M883.74 762.2l-207.3 210.64" stroke="#5e5e5e" stroke-width="2" fill="none"/><path d="M884.44 762.93l-1.43-1.4.04-.03h2.8z" fill="#5e5e5e"/><path d="M665.73 983.72l6.7-13.42 6.6 6.5z" stroke="#5e5e5e" stroke-width="2" fill="#5e5e5e"/><path d="M703.4 1005.02l195.7-229.44" stroke="#5e5e5e" stroke-width="2" fill="none"/><path d="M704.18 1005.65l-.67.78-1.2-1.02-.32-.25.68-.8z" fill="#5e5e5e"/><path d="M909 763.96l-5.72 13.86-7.05-6z" stroke="#5e5e5e" stroke-width="2" fill="#5e5e5e"/><path d="M1289.17 977.94L985.3 771.88" stroke="#5e5e5e" stroke-width="2" fill="none"/><path d="M1291.84 978.54l-1.83-.04-1.25.02.96-1.42z" fill="#5e5e5e"/><path d="M972.68 763.32l14.4 4.17-5.2 7.66z" stroke="#5e5e5e" stroke-width="2" fill="#5e5e5e"/><path d="M947.94 762.06l303.9 207.3" stroke="#5e5e5e" stroke-width="2" fill="none"/><path d="M947.4 762.9l-2.06-1.4h3z" fill="#5e5e5e"/><path d="M1264.44 977.98l-14.4-4.2 5.23-7.67z" stroke="#5e5e5e" stroke-width="2" fill="#5e5e5e"/><path d="M1140 466c0-3.3 2.7-6 6-6h228c3.3 0 6 2.7 6 6v48c0 3.3-2.7 6-6 6h-228c-3.3 0-6-2.7-6-6z" stroke="#000" stroke-opacity="0" stroke-width="3" fill="#fff" fill-opacity="0"/><use xlink:href="#q" transform="matrix(1,0,0,1,1145,465) translate(63.85802469135802 30.27777777777778)"/><path d="M540 726c0-3.3 2.7-6 6-6h228c3.3 0 6 2.7 6 6v48c0 3.3-2.7 6-6 6H546c-3.3 0-6-2.7-6-6z" stroke="#000" stroke-opacity="0" stroke-width="3" fill="#fff" fill-opacity="0"/><use xlink:href="#q" transform="matrix(1,0,0,1,545,725) translate(63.85802469135802 30.27777777777778)"/><path d="M720 466c0-3.3 2.7-6 6-6h228c3.3 0 6 2.7 6 6v48c0 3.3-2.7 6-6 6H726c-3.3 0-6-2.7-6-6z" stroke="#000" stroke-opacity="0" stroke-width="3" fill="#fff" fill-opacity="0"/><use xlink:href="#q" transform="matrix(1,0,0,1,725,465) translate(63.85802469135802 30.27777777777778)"/><path d="M920 926c0-3.3 2.7-6 6-6h228c3.3 0 6 2.7 6 6v48c0 3.3-2.7 6-6 6H926c-3.3 0-6-2.7-6-6z" stroke="#000" stroke-opacity="0" stroke-width="3" fill="#fff" fill-opacity="0"/><use xlink:href="#q" transform="matrix(1,0,0,1,925,925) translate(63.85802469135802 30.27777777777778)"/><path d="M550 986c0-3.3 2.7-6 6-6h228c3.3 0 6 2.7 6 6v48c0 3.3-2.7 6-6 6H556c-3.3 0-6-2.7-6-6z" stroke="#000" stroke-opacity="0" stroke-width="3" fill="#fff" fill-opacity="0"/><use xlink:href="#r" transform="matrix(1,0,0,1,555,985) translate(90.98765432098766 30.27777777777778)"/><path d="M740 906c0-3.3 2.7-6 6-6h228c3.3 0 6 2.7 6 6v48c0 3.3-2.7 6-6 6H746c-3.3 0-6-2.7-6-6z" stroke="#000" stroke-opacity="0" stroke-width="3" fill="#fff" fill-opacity="0"/><use xlink:href="#s" transform="matrix(1,0,0,1,745,905) translate(39.876543209876544 30.27777777777778)"/><use xlink:href="#t" transform="matrix(1,0,0,1,745,905) translate(117.4074074074074 30.27777777777778)"/><path d="M1180 726c0-3.3 2.7-6 6-6h228c3.3 0 6 2.7 6 6v48c0 3.3-2.7 6-6 6h-228c-3.3 0-6-2.7-6-6z" stroke="#000" stroke-opacity="0" stroke-width="3" fill="#fff" fill-opacity="0"/><g><use xlink:href="#u" transform="matrix(1,0,0,1,1185,725) translate(71.29629629629629 30.27777777777778)"/></g><path d="M380 926c0-3.3 2.7-6 6-6h228c3.3 0 6 2.7 6 6v48c0 3.3-2.7 6-6 6H386c-3.3 0-6-2.7-6-6z" stroke="#000" stroke-opacity="0" stroke-width="3" fill="#fff" fill-opacity="0"/><g><use xlink:href="#v" transform="matrix(1,0,0,1,385,925) translate(44.19753086419753 30.27777777777778)"/><use xlink:href="#w" transform="matrix(1,0,0,1,385,925) translate(137.77777777777777 30.27777777777778)"/></g><path d="M560 626c0-3.3 2.7-6 6-6h228c3.3 0 6 2.7 6 6v48c0 3.3-2.7 6-6 6H566c-3.3 0-6-2.7-6-6z" stroke="#000" stroke-opacity="0" stroke-width="3" fill="#fff" fill-opacity="0"/><g><use xlink:href="#x" transform="matrix(1,0,0,1,565,625) translate(68.82716049382717 30.27777777777778)"/><use xlink:href="#y" transform="matrix(1,0,0,1,565,625) translate(120.61728395061729 30.27777777777778)"/></g><path d="M440 466c0-3.3 2.7-6 6-6h228c3.3 0 6 2.7 6 6v48c0 3.3-2.7 6-6 6H446c-3.3 0-6-2.7-6-6z" stroke="#000" stroke-opacity="0" stroke-width="3" fill="#fff" fill-opacity="0"/><g><use xlink:href="#z" transform="matrix(1,0,0,1,445,465) translate(2.7777777777777715 30.27777777777778)"/><use xlink:href="#A" transform="matrix(1,0,0,1,445,465) translate(122.4074074074074 30.27777777777778)"/></g><path d="M960 426c0-3.3 2.7-6 6-6h228c3.3 0 6 2.7 6 6v48c0 3.3-2.7 6-6 6H966c-3.3 0-6-2.7-6-6z" stroke="#000" stroke-opacity="0" stroke-width="3" fill="#fff" fill-opacity="0"/><g><use xlink:href="#B" transform="matrix(1,0,0,1,965,425) translate(39.90740740740742 30.27777777777778)"/><use xlink:href="#C" transform="matrix(1,0,0,1,965,425) translate(149.53703703703704 30.27777777777778)"/></g><defs><path fill="#333" d="M182-182c0 78-84 86-111 141h115V0H12c-6-101 99-100 120-180 1-22-12-31-33-32-23 0-32 14-35 34l-49-3c5-45 32-70 84-70 51 0 83 22 83 69" id="D"/><path fill="#333" d="M24 0v-54h51V0H24" id="E"/><path fill="#333" d="M67-125c0 53 21 87 73 88 37 1 54-22 65-47l45 17C233-25 199 4 140 4 58 4 20-42 15-125 8-235 124-281 211-232c18 10 29 29 36 50l-46 12c-8-25-30-41-62-41-52 0-71 34-72 86" id="F"/><path fill="#333" d="M114-157C55-157 80-60 75 0H25v-261h50l-1 109c12-26 28-41 61-42 86-1 58 113 63 194h-50c-7-57 23-157-34-157" id="G"/><path fill="#333" d="M133-34C117-15 103 5 69 4 32 3 11-16 11-54c-1-60 55-63 116-61 1-26-3-47-28-47-18 1-26 9-28 27l-52-2c7-38 36-58 82-57s74 22 75 68l1 82c-1 14 12 18 25 15v27c-30 8-71 5-69-32zm-48 3c29 0 43-24 42-57-32 0-66-3-65 30 0 17 8 27 23 27" id="H"/><path fill="#333" d="M135-194c87-1 58 113 63 194h-50c-7-57 23-157-34-157-59 0-34 97-39 157H25l-1-190h47c2 12-1 28 3 38 12-26 28-41 61-42" id="I"/><path fill="#333" d="M195-6C206 82 75 100 31 46c-4-6-6-13-8-21l49-6c3 16 16 24 34 25 40 0 42-37 40-79-11 22-30 35-61 35-53 0-70-43-70-97 0-56 18-96 73-97 30 0 46 14 59 34l2-30h47zm-90-29c32 0 41-27 41-63 0-35-9-62-40-62-32 0-39 29-40 63 0 36 9 62 39 62" id="J"/><path fill="#333" d="M185-48c-13 30-37 53-82 52C43 2 14-33 14-96s30-98 90-98c62 0 83 45 84 108H66c0 31 8 55 39 56 18 0 30-7 34-22zm-45-69c5-46-57-63-70-21-2 6-4 13-4 21h74" id="K"/><g id="a"><use transform="matrix(0.06790123456790123,0,0,0.06790123456790123,0,0)" xlink:href="#D"/><use transform="matrix(0.06790123456790123,0,0,0.06790123456790123,13.580246913580247,0)" xlink:href="#E"/><use transform="matrix(0.06790123456790123,0,0,0.06790123456790123,20.37037037037037,0)" xlink:href="#F"/><use transform="matrix(0.06790123456790123,0,0,0.06790123456790123,37.95679012345679,0)" xlink:href="#G"/><use transform="matrix(0.06790123456790123,0,0,0.06790123456790123,52.82716049382715,0)" xlink:href="#H"/><use transform="matrix(0.06790123456790123,0,0,0.06790123456790123,66.40740740740739,0)" xlink:href="#I"/><use transform="matrix(0.06790123456790123,0,0,0.06790123456790123,81.27777777777776,0)" xlink:href="#J"/><use transform="matrix(0.06790123456790123,0,0,0.06790123456790123,96.14814814814812,0)" xlink:href="#K"/></g><path fill="#333" d="M24 0v-248h52V0H24" id="L"/><path fill="#333" d="M121-226c-27-7-43 5-38 36h38v33H83V0H34v-157H6v-33h28c-9-59 32-81 87-68v32" id="M"/><path fill="#333" d="M110-194c64 0 96 36 96 99 0 64-35 99-97 99-61 0-95-36-95-99 0-62 34-99 96-99zm-1 164c35 0 45-28 45-65 0-40-10-65-43-65-34 0-45 26-45 65 0 36 10 65 43 65" id="N"/><path fill="#333" d="M135-150c-39-12-60 13-60 57V0H25l-1-190h47c2 13-1 29 3 40 6-28 27-53 61-41v41" id="O"/><path fill="#333" d="M220-157c-53 9-28 100-34 157h-49v-107c1-27-5-49-29-50C55-147 81-57 75 0H25l-1-190h47c2 12-1 28 3 38 10-53 101-56 108 0 13-22 24-43 59-42 82 1 51 116 57 194h-49v-107c-1-25-5-48-29-50" id="P"/><path fill="#333" d="M115-3C79 11 28 4 28-45v-112H4v-33h27l15-45h31v45h36v33H77v99c-1 23 16 31 38 25v30" id="Q"/><path fill="#333" d="M25-224v-37h50v37H25zM25 0v-190h50V0H25" id="R"/><g id="b"><use transform="matrix(0.06790123456790123,0,0,0.06790123456790123,0,0)" xlink:href="#L"/><use transform="matrix(0.06790123456790123,0,0,0.06790123456790123,6.790123456790123,0)" xlink:href="#I"/><use transform="matrix(0.06790123456790123,0,0,0.06790123456790123,21.660493827160494,0)" xlink:href="#M"/><use transform="matrix(0.06790123456790123,0,0,0.06790123456790123,29.74074074074074,0)" xlink:href="#N"/><use transform="matrix(0.06790123456790123,0,0,0.06790123456790123,44.611111111111114,0)" xlink:href="#O"/><use transform="matrix(0.06790123456790123,0,0,0.06790123456790123,54.11728395061729,0)" xlink:href="#P"/><use transform="matrix(0.06790123456790123,0,0,0.06790123456790123,75.84567901234567,0)" xlink:href="#H"/><use transform="matrix(0.06790123456790123,0,0,0.06790123456790123,89.42592592592592,0)" xlink:href="#Q"/><use transform="matrix(0.06790123456790123,0,0,0.06790123456790123,97.50617283950618,0)" xlink:href="#R"/><use transform="matrix(0.06790123456790123,0,0,0.06790123456790123,104.2962962962963,0)" xlink:href="#N"/><use transform="matrix(0.06790123456790123,0,0,0.06790123456790123,119.16666666666667,0)" xlink:href="#I"/></g><path fill="#333" d="M128-127c34 4 56 21 59 58 7 91-148 94-172 28-4-9-6-17-7-26l51-5c1 24 16 35 40 36 23 0 39-12 38-36-1-31-31-36-65-34v-40c32 2 59-3 59-33 0-20-13-33-34-33s-33 13-35 32l-50-3c6-44 37-68 86-68 50 0 83 20 83 66 0 35-22 52-53 58" id="S"/><path fill="#333" d="M147 0H94L2-248h55l64 206c17-72 42-137 63-206h54" id="T"/><path fill="#333" d="M231 0h-52l-39-155L100 0H48L-1-190h46L77-45c9-52 24-97 36-145h53l37 145 32-145h46" id="U"/><g id="c"><use transform="matrix(0.06790123456790123,0,0,0.06790123456790123,0,0)" xlink:href="#S"/><use transform="matrix(0.06790123456790123,0,0,0.06790123456790123,13.580246913580247,0)" xlink:href="#E"/><use transform="matrix(0.06790123456790123,0,0,0.06790123456790123,20.37037037037037,0)" xlink:href="#T"/><use transform="matrix(0.06790123456790123,0,0,0.06790123456790123,36.191358024691354,0)" xlink:href="#R"/><use transform="matrix(0.06790123456790123,0,0,0.06790123456790123,42.98148148148148,0)" xlink:href="#K"/><use transform="matrix(0.06790123456790123,0,0,0.06790123456790123,56.56172839506173,0)" xlink:href="#U"/></g><path fill="#333" d="M137-138c1-29-70-34-71-4 15 46 118 7 119 86 1 83-164 76-172 9l43-7c4 19 20 25 44 25 33 8 57-30 24-41C81-84 22-81 20-136c-2-80 154-74 161-7" id="V"/><g id="d"><use transform="matrix(0.06790123456790123,0,0,0.06790123456790123,0,0)" xlink:href="#L"/><use transform="matrix(0.06790123456790123,0,0,0.06790123456790123,6.790123456790123,0)" xlink:href="#Q"/><use transform="matrix(0.06790123456790123,0,0,0.06790123456790123,14.87037037037037,0)" xlink:href="#K"/><use transform="matrix(0.06790123456790123,0,0,0.06790123456790123,28.450617283950617,0)" xlink:href="#P"/><use transform="matrix(0.06790123456790123,0,0,0.06790123456790123,50.17901234567901,0)" xlink:href="#V"/></g><g id="e"><use transform="matrix(0.06790123456790123,0,0,0.06790123456790123,0,0)" xlink:href="#L"/><use transform="matrix(0.06790123456790123,0,0,0.06790123456790123,6.790123456790123,0)" xlink:href="#I"/><use transform="matrix(0.06790123456790123,0,0,0.06790123456790123,21.660493827160494,0)" xlink:href="#M"/><use transform="matrix(0.06790123456790123,0,0,0.06790123456790123,29.74074074074074,0)" xlink:href="#N"/></g><path fill="#fff" d="M67-125c0 53 21 87 73 88 37 1 54-22 65-47l45 17C233-25 199 4 140 4 58 4 20-42 15-125 8-235 124-281 211-232c18 10 29 29 36 50l-46 12c-8-25-30-41-62-41-52 0-71 34-72 86" id="W"/><path fill="#fff" d="M185-48c-13 30-37 53-82 52C43 2 14-33 14-96s30-98 90-98c62 0 83 45 84 108H66c0 31 8 55 39 56 18 0 30-7 34-22zm-45-69c5-46-57-63-70-21-2 6-4 13-4 21h74" id="X"/><path fill="#fff" d="M135-194c87-1 58 113 63 194h-50c-7-57 23-157-34-157-59 0-34 97-39 157H25l-1-190h47c2 12-1 28 3 38 12-26 28-41 61-42" id="Y"/><path fill="#fff" d="M115-3C79 11 28 4 28-45v-112H4v-33h27l15-45h31v45h36v33H77v99c-1 23 16 31 38 25v30" id="Z"/><path fill="#fff" d="M135-150c-39-12-60 13-60 57V0H25l-1-190h47c2 13-1 29 3 40 6-28 27-53 61-41v41" id="aa"/><path fill="#fff" d="M133-34C117-15 103 5 69 4 32 3 11-16 11-54c-1-60 55-63 116-61 1-26-3-47-28-47-18 1-26 9-28 27l-52-2c7-38 36-58 82-57s74 22 75 68l1 82c-1 14 12 18 25 15v27c-30 8-71 5-69-32zm-48 3c29 0 43-24 42-57-32 0-66-3-65 30 0 17 8 27 23 27" id="ab"/><path fill="#fff" d="M25 0v-261h50V0H25" id="ac"/><g id="f"><use transform="matrix(0.08024691358024691,0,0,0.08024691358024691,0,0)" xlink:href="#W"/><use transform="matrix(0.08024691358024691,0,0,0.08024691358024691,20.78395061728395,0)" xlink:href="#X"/><use transform="matrix(0.08024691358024691,0,0,0.08024691358024691,36.83333333333333,0)" xlink:href="#Y"/><use transform="matrix(0.08024691358024691,0,0,0.08024691358024691,54.407407407407405,0)" xlink:href="#Z"/><use transform="matrix(0.08024691358024691,0,0,0.08024691358024691,63.956790123456784,0)" xlink:href="#aa"/><use transform="matrix(0.08024691358024691,0,0,0.08024691358024691,75.19135802469135,0)" xlink:href="#ab"/><use transform="matrix(0.08024691358024691,0,0,0.08024691358024691,91.24074074074073,0)" xlink:href="#ac"/></g><path fill="#fff" d="M238-95c0 69-44 99-111 99C63 4 22-25 22-93v-155h51v151c-1 38 19 59 55 60 90 1 49-130 58-211h52v153" id="ad"/><path fill="#fff" d="M24 0v-248h52V0H24" id="ae"/><g id="g"><use transform="matrix(0.08024691358024691,0,0,0.08024691358024691,0,0)" xlink:href="#ad"/><use transform="matrix(0.08024691358024691,0,0,0.08024691358024691,20.78395061728395,0)" xlink:href="#ae"/></g><path fill="#333" d="M139-81c0-46-55-55-73-27H18l9-140h149v37H72l-4 63c44-38 133-4 122 66C201 21 21 35 11-62l49-4c5 18 15 30 39 30 26 0 40-18 40-45" id="af"/><g id="h"><use transform="matrix(0.06790123456790123,0,0,0.06790123456790123,0,0)" xlink:href="#af"/><use transform="matrix(0.06790123456790123,0,0,0.06790123456790123,13.580246913580247,0)" xlink:href="#E"/><use transform="matrix(0.06790123456790123,0,0,0.06790123456790123,20.37037037037037,0)" xlink:href="#F"/><use transform="matrix(0.06790123456790123,0,0,0.06790123456790123,37.95679012345679,0)" xlink:href="#O"/><use transform="matrix(0.06790123456790123,0,0,0.06790123456790123,47.462962962962955,0)" xlink:href="#K"/><use transform="matrix(0.06790123456790123,0,0,0.06790123456790123,61.0432098765432,0)" xlink:href="#H"/><use transform="matrix(0.06790123456790123,0,0,0.06790123456790123,74.62345679012344,0)" xlink:href="#Q"/><use transform="matrix(0.06790123456790123,0,0,0.06790123456790123,82.7037037037037,0)" xlink:href="#K"/></g><path fill="#333" d="M240-174c0 40-23 61-54 70L253 0h-59l-57-94H76V0H24v-248c93 4 217-23 216 74zM76-134c48-2 112 12 112-38 0-48-66-32-112-35v73" id="ag"/><path fill="#333" d="M135-194c53 0 70 44 70 98 0 56-19 98-73 100-31 1-45-17-59-34 3 33 2 69 2 105H25l-1-265h48c2 10 0 23 3 31 11-24 29-35 60-35zM114-30c33 0 39-31 40-66 0-38-9-64-40-64-56 0-55 130 0 130" id="ah"/><g id="i"><use transform="matrix(0.06790123456790123,0,0,0.06790123456790123,0,0)" xlink:href="#ag"/><use transform="matrix(0.06790123456790123,0,0,0.06790123456790123,17.586419753086417,0)" xlink:href="#K"/><use transform="matrix(0.06790123456790123,0,0,0.06790123456790123,31.166666666666664,0)" xlink:href="#ah"/><use transform="matrix(0.06790123456790123,0,0,0.06790123456790123,46.03703703703703,0)" xlink:href="#N"/><use transform="matrix(0.06790123456790123,0,0,0.06790123456790123,60.907407407407405,0)" xlink:href="#O"/><use transform="matrix(0.06790123456790123,0,0,0.06790123456790123,70.41358024691358,0)" xlink:href="#Q"/><use transform="matrix(0.06790123456790123,0,0,0.06790123456790123,78.49382716049382,0)" xlink:href="#V"/></g><path fill="#333" d="M115-159c48 0 72 30 72 78 0 54-30 85-83 85-64 0-91-50-91-122 0-98 58-163 141-120 15 8 21 24 27 44l-47 6c-5-31-48-31-61-4-7 14-11 33-11 60 9-17 28-27 53-27zM102-35c24 0 36-20 36-45s-11-43-37-43c-23 0-36 14-36 38 0 27 11 50 37 50" id="ai"/><path fill="#333" d="M67-125c0 54 23 88 75 88 28 0 53-7 68-21v-34h-60v-39h108v91C232-14 192 4 140 4 58 4 20-42 15-125 8-236 126-280 215-234c19 10 29 26 37 47l-47 15c-11-23-29-39-63-39-53 1-75 33-75 86" id="aj"/><g id="j"><use transform="matrix(0.06790123456790123,0,0,0.06790123456790123,0,0)" xlink:href="#ai"/><use transform="matrix(0.06790123456790123,0,0,0.06790123456790123,13.580246913580247,0)" xlink:href="#E"/><use transform="matrix(0.06790123456790123,0,0,0.06790123456790123,20.37037037037037,0)" xlink:href="#aj"/><use transform="matrix(0.06790123456790123,0,0,0.06790123456790123,39.382716049382715,0)" xlink:href="#K"/><use transform="matrix(0.06790123456790123,0,0,0.06790123456790123,52.96296296296296,0)" xlink:href="#Q"/></g><path fill="#333" d="M186 0v-106H76V0H24v-248h52v99h110v-99h50V0h-50" id="ak"/><path fill="#333" d="M25 0v-261h50V0H25" id="al"/><g id="k"><use transform="matrix(0.06790123456790123,0,0,0.06790123456790123,0,0)" xlink:href="#ak"/><use transform="matrix(0.06790123456790123,0,0,0.06790123456790123,17.586419753086417,0)" xlink:href="#K"/><use transform="matrix(0.06790123456790123,0,0,0.06790123456790123,31.166666666666664,0)" xlink:href="#al"/><use transform="matrix(0.06790123456790123,0,0,0.06790123456790123,37.95679012345679,0)" xlink:href="#ah"/></g><path fill="#333" d="M23 0v-37h61v-169l-59 37v-38l62-41h46v211h57V0H23" id="am"/><path fill="#333" d="M24 0v-248h52v208h133V0H24" id="an"/><g id="l"><use transform="matrix(0.06790123456790123,0,0,0.06790123456790123,0,0)" xlink:href="#am"/><use transform="matrix(0.06790123456790123,0,0,0.06790123456790123,13.580246913580247,0)" xlink:href="#E"/><use transform="matrix(0.06790123456790123,0,0,0.06790123456790123,20.37037037037037,0)" xlink:href="#an"/><use transform="matrix(0.06790123456790123,0,0,0.06790123456790123,35.24074074074074,0)" xlink:href="#N"/><use transform="matrix(0.06790123456790123,0,0,0.06790123456790123,50.111111111111114,0)" xlink:href="#J"/><use transform="matrix(0.06790123456790123,0,0,0.06790123456790123,64.98148148148148,0)" xlink:href="#R"/><use transform="matrix(0.06790123456790123,0,0,0.06790123456790123,71.77160493827161,0)" xlink:href="#I"/></g><path fill="#333" d="M169-182c-1-43-94-46-97-3 18 66 151 10 154 114 3 95-165 93-204 36-6-8-10-19-12-30l50-8c3 46 112 56 116 5-17-69-150-10-154-114-4-87 153-88 188-35 5 8 8 18 10 28" id="ao"/><path fill="#333" d="M123 10C108 53 80 86 19 72V37c35 8 53-11 59-39L3-190h52l48 148c12-52 28-100 44-148h51" id="ap"/><g id="m"><use transform="matrix(0.06790123456790123,0,0,0.06790123456790123,0,0)" xlink:href="#ao"/><use transform="matrix(0.06790123456790123,0,0,0.06790123456790123,16.296296296296294,0)" xlink:href="#ap"/><use transform="matrix(0.06790123456790123,0,0,0.06790123456790123,29.87654320987654,0)" xlink:href="#V"/><use transform="matrix(0.06790123456790123,0,0,0.06790123456790123,43.456790123456784,0)" xlink:href="#Q"/><use transform="matrix(0.06790123456790123,0,0,0.06790123456790123,51.53703703703703,0)" xlink:href="#K"/><use transform="matrix(0.06790123456790123,0,0,0.06790123456790123,65.11728395061728,0)" xlink:href="#P"/></g><path fill="#333" d="M52 0c1-96 47-148 87-207H15v-41h169v40c-36 62-79 113-81 208H52" id="aq"/><path fill="#333" d="M199 0l-22-63H83L61 0H9l90-248h61L250 0h-51zm-33-102l-36-108c-10 38-24 72-36 108h72" id="ar"/><path fill="#333" d="M88-194c31-1 46 15 58 34l-1-101h50l1 261h-48c-2-10 0-23-3-31C134-8 116 4 84 4 32 4 16-41 15-95c0-56 19-97 73-99zm17 164c33 0 40-30 41-66 1-37-9-64-41-64s-38 30-39 65c0 43 13 65 39 65" id="as"/><g id="n"><use transform="matrix(0.06790123456790123,0,0,0.06790123456790123,0,0)" xlink:href="#aq"/><use transform="matrix(0.06790123456790123,0,0,0.06790123456790123,13.580246913580247,0)" xlink:href="#E"/><use transform="matrix(0.06790123456790123,0,0,0.06790123456790123,20.37037037037037,0)" xlink:href="#ar"/><use transform="matrix(0.06790123456790123,0,0,0.06790123456790123,37.95679012345679,0)" xlink:href="#as"/><use transform="matrix(0.06790123456790123,0,0,0.06790123456790123,52.82716049382715,0)" xlink:href="#as"/></g><g id="o"><use transform="matrix(0.06790123456790123,0,0,0.06790123456790123,0,0)" xlink:href="#I"/><use transform="matrix(0.06790123456790123,0,0,0.06790123456790123,14.87037037037037,0)" xlink:href="#K"/><use transform="matrix(0.06790123456790123,0,0,0.06790123456790123,28.450617283950617,0)" xlink:href="#U"/></g><path fill="#333" d="M85 4C-2 5 27-109 22-190h50c7 57-23 150 33 157 60-5 35-97 40-157h50l1 190h-47c-2-12 1-28-3-38-12 25-28 42-61 42" id="at"/><g id="p"><use transform="matrix(0.06790123456790123,0,0,0.06790123456790123,0,0)" xlink:href="#F"/><use transform="matrix(0.06790123456790123,0,0,0.06790123456790123,17.586419753086417,0)" xlink:href="#at"/><use transform="matrix(0.06790123456790123,0,0,0.06790123456790123,32.456790123456784,0)" xlink:href="#V"/><use transform="matrix(0.06790123456790123,0,0,0.06790123456790123,46.03703703703703,0)" xlink:href="#Q"/><use transform="matrix(0.06790123456790123,0,0,0.06790123456790123,54.11728395061728,0)" xlink:href="#N"/><use transform="matrix(0.06790123456790123,0,0,0.06790123456790123,68.98765432098764,0)" xlink:href="#P"/><use transform="matrix(0.06790123456790123,0,0,0.06790123456790123,90.71604938271602,0)" xlink:href="#K"/><use transform="matrix(0.06790123456790123,0,0,0.06790123456790123,104.29629629629628,0)" xlink:href="#O"/><use transform="matrix(0.06790123456790123,0,0,0.06790123456790123,113.80246913580245,0)" xlink:href="#V"/></g><path fill="#333" d="M76-208v77h127v40H76V0H24v-248h183v40H76" id="au"/><path fill="#333" d="M135-194c52 0 70 43 70 98 0 56-19 99-73 100-30 1-46-15-58-35L72 0H24l1-261h50v104c11-23 29-37 60-37zM114-30c31 0 40-27 40-66 0-37-7-63-39-63s-41 28-41 65c0 36 8 64 40 64" id="av"/><path fill="#333" d="M190-63c-7 42-38 67-86 67-59 0-84-38-90-98-12-110 154-137 174-36l-49 2c-2-19-15-32-35-32-30 0-35 28-38 64-6 74 65 87 74 30" id="aw"/><path fill="#333" d="M147 0L96-86 75-71V0H25v-261h50v150l67-79h53l-66 74L201 0h-54" id="ax"/><g id="q"><use transform="matrix(0.06172839506172839,0,0,0.06172839506172839,0,0)" xlink:href="#au"/><use transform="matrix(0.06172839506172839,0,0,0.06172839506172839,13.518518518518517,0)" xlink:href="#K"/><use transform="matrix(0.06172839506172839,0,0,0.06172839506172839,25.864197530864196,0)" xlink:href="#K"/><use transform="matrix(0.06172839506172839,0,0,0.06172839506172839,38.20987654320987,0)" xlink:href="#as"/><use transform="matrix(0.06172839506172839,0,0,0.06172839506172839,51.72839506172839,0)" xlink:href="#av"/><use transform="matrix(0.06172839506172839,0,0,0.06172839506172839,65.24691358024691,0)" xlink:href="#H"/><use transform="matrix(0.06172839506172839,0,0,0.06172839506172839,77.5925925925926,0)" xlink:href="#aw"/><use transform="matrix(0.06172839506172839,0,0,0.06172839506172839,89.93827160493828,0)" xlink:href="#ax"/></g><g id="r"><use transform="matrix(0.06172839506172839,0,0,0.06172839506172839,0,0)" xlink:href="#ak"/><use transform="matrix(0.06172839506172839,0,0,0.06172839506172839,15.987654320987653,0)" xlink:href="#K"/><use transform="matrix(0.06172839506172839,0,0,0.06172839506172839,28.333333333333332,0)" xlink:href="#al"/><use transform="matrix(0.06172839506172839,0,0,0.06172839506172839,34.50617283950617,0)" xlink:href="#ah"/></g><g id="s"><use transform="matrix(0.06172839506172839,0,0,0.06172839506172839,0,0)" xlink:href="#ag"/><use transform="matrix(0.06172839506172839,0,0,0.06172839506172839,15.987654320987653,0)" xlink:href="#K"/><use transform="matrix(0.06172839506172839,0,0,0.06172839506172839,28.333333333333332,0)" xlink:href="#ah"/><use transform="matrix(0.06172839506172839,0,0,0.06172839506172839,41.85185185185185,0)" xlink:href="#N"/><use transform="matrix(0.06172839506172839,0,0,0.06172839506172839,55.37037037037037,0)" xlink:href="#O"/><use transform="matrix(0.06172839506172839,0,0,0.06172839506172839,64.01234567901234,0)" xlink:href="#Q"/></g><path fill="#333" d="M24-248c120-7 223 5 221 122C244-46 201 0 124 0H24v-248zM76-40c74 7 117-18 117-86 0-67-45-88-117-82v168" id="ay"/><g id="t"><use transform="matrix(0.06172839506172839,0,0,0.06172839506172839,0,0)" xlink:href="#ay"/><use transform="matrix(0.06172839506172839,0,0,0.06172839506172839,15.987654320987653,0)" xlink:href="#K"/><use transform="matrix(0.06172839506172839,0,0,0.06172839506172839,28.333333333333332,0)" xlink:href="#Q"/><use transform="matrix(0.06172839506172839,0,0,0.06172839506172839,35.67901234567901,0)" xlink:href="#H"/><use transform="matrix(0.06172839506172839,0,0,0.06172839506172839,48.02469135802469,0)" xlink:href="#R"/><use transform="matrix(0.06172839506172839,0,0,0.06172839506172839,54.19753086419753,0)" xlink:href="#al"/><use transform="matrix(0.06172839506172839,0,0,0.06172839506172839,60.370370370370374,0)" xlink:href="#V"/></g><path fill="#333" d="M84 4C32 4 15-41 15-95c0-55 18-99 73-99 29 0 47 12 58 34l2-30h48l-1 265h-49V-32C136-9 114 4 84 4zm21-34c32 0 41-29 41-66 0-36-9-64-40-64-33 0-39 30-40 65 0 43 13 65 39 65" id="az"/><g id="u"><use transform="matrix(0.06172839506172839,0,0,0.06172839506172839,0,0)" xlink:href="#ag"/><use transform="matrix(0.06172839506172839,0,0,0.06172839506172839,15.987654320987653,0)" xlink:href="#K"/><use transform="matrix(0.06172839506172839,0,0,0.06172839506172839,28.333333333333332,0)" xlink:href="#az"/><use transform="matrix(0.06172839506172839,0,0,0.06172839506172839,41.85185185185185,0)" xlink:href="#at"/><use transform="matrix(0.06172839506172839,0,0,0.06172839506172839,55.37037037037037,0)" xlink:href="#K"/><use transform="matrix(0.06172839506172839,0,0,0.06172839506172839,67.71604938271605,0)" xlink:href="#V"/><use transform="matrix(0.06172839506172839,0,0,0.06172839506172839,80.06172839506173,0)" xlink:href="#Q"/></g><g id="v"><use transform="matrix(0.06172839506172839,0,0,0.06172839506172839,0,0)" xlink:href="#ag"/><use transform="matrix(0.06172839506172839,0,0,0.06172839506172839,15.987654320987653,0)" xlink:href="#K"/><use transform="matrix(0.06172839506172839,0,0,0.06172839506172839,28.333333333333332,0)" xlink:href="#az"/><use transform="matrix(0.06172839506172839,0,0,0.06172839506172839,41.85185185185185,0)" xlink:href="#at"/><use transform="matrix(0.06172839506172839,0,0,0.06172839506172839,55.37037037037037,0)" xlink:href="#K"/><use transform="matrix(0.06172839506172839,0,0,0.06172839506172839,67.71604938271605,0)" xlink:href="#V"/><use transform="matrix(0.06172839506172839,0,0,0.06172839506172839,80.06172839506173,0)" xlink:href="#Q"/></g><g id="w"><use transform="matrix(0.06172839506172839,0,0,0.06172839506172839,0,0)" xlink:href="#ak"/><use transform="matrix(0.06172839506172839,0,0,0.06172839506172839,15.987654320987653,0)" xlink:href="#K"/><use transform="matrix(0.06172839506172839,0,0,0.06172839506172839,28.333333333333332,0)" xlink:href="#al"/><use transform="matrix(0.06172839506172839,0,0,0.06172839506172839,34.50617283950617,0)" xlink:href="#ah"/></g><path fill="#333" d="M175 0L67-191c6 58 2 128 3 191H24v-248h59L193-55c-6-58-2-129-3-193h46V0h-61" id="aA"/><g id="x"><use transform="matrix(0.06172839506172839,0,0,0.06172839506172839,0,0)" xlink:href="#aA"/><use transform="matrix(0.06172839506172839,0,0,0.06172839506172839,15.987654320987653,0)" xlink:href="#K"/><use transform="matrix(0.06172839506172839,0,0,0.06172839506172839,28.333333333333332,0)" xlink:href="#U"/></g><g id="y"><use transform="matrix(0.06172839506172839,0,0,0.06172839506172839,0,0)" xlink:href="#L"/><use transform="matrix(0.06172839506172839,0,0,0.06172839506172839,6.172839506172839,0)" xlink:href="#I"/><use transform="matrix(0.06172839506172839,0,0,0.06172839506172839,19.691358024691358,0)" xlink:href="#M"/><use transform="matrix(0.06172839506172839,0,0,0.06172839506172839,27.037037037037038,0)" xlink:href="#N"/></g><path fill="#333" d="M238-95c0 69-44 99-111 99C63 4 22-25 22-93v-155h51v151c-1 38 19 59 55 60 90 1 49-130 58-211h52v153" id="aB"/><path fill="#333" d="M76-54c-1 42 2 86-19 110H24C36 42 46 24 48 0H25v-54h51" id="aC"/><g id="z"><use transform="matrix(0.06172839506172839,0,0,0.06172839506172839,0,0)" xlink:href="#aB"/><use transform="matrix(0.06172839506172839,0,0,0.06172839506172839,15.987654320987653,0)" xlink:href="#V"/><use transform="matrix(0.06172839506172839,0,0,0.06172839506172839,28.333333333333332,0)" xlink:href="#K"/><use transform="matrix(0.06172839506172839,0,0,0.06172839506172839,40.67901234567901,0)" xlink:href="#O"/><use transform="matrix(0.06172839506172839,0,0,0.06172839506172839,49.32098765432099,0)" xlink:href="#I"/><use transform="matrix(0.06172839506172839,0,0,0.06172839506172839,62.839506172839506,0)" xlink:href="#H"/><use transform="matrix(0.06172839506172839,0,0,0.06172839506172839,75.18518518518519,0)" xlink:href="#P"/><use transform="matrix(0.06172839506172839,0,0,0.06172839506172839,94.93827160493828,0)" xlink:href="#K"/><use transform="matrix(0.06172839506172839,0,0,0.06172839506172839,107.28395061728396,0)" xlink:href="#aC"/></g><path fill="#333" d="M24-248c93 1 206-16 204 79-1 75-69 88-152 82V0H24v-248zm52 121c47 0 100 7 100-41 0-47-54-39-100-39v80" id="aD"/><g id="A"><use transform="matrix(0.06172839506172839,0,0,0.06172839506172839,0,0)" xlink:href="#aD"/><use transform="matrix(0.06172839506172839,0,0,0.06172839506172839,14.814814814814813,0)" xlink:href="#H"/><use transform="matrix(0.06172839506172839,0,0,0.06172839506172839,27.160493827160494,0)" xlink:href="#V"/><use transform="matrix(0.06172839506172839,0,0,0.06172839506172839,39.50617283950617,0)" xlink:href="#V"/><use transform="matrix(0.06172839506172839,0,0,0.06172839506172839,51.85185185185185,0)" xlink:href="#U"/><use transform="matrix(0.06172839506172839,0,0,0.06172839506172839,69.1358024691358,0)" xlink:href="#N"/><use transform="matrix(0.06172839506172839,0,0,0.06172839506172839,82.65432098765432,0)" xlink:href="#O"/><use transform="matrix(0.06172839506172839,0,0,0.06172839506172839,91.29629629629629,0)" xlink:href="#as"/></g><g id="B"><use transform="matrix(0.06172839506172839,0,0,0.06172839506172839,0,0)" xlink:href="#F"/><use transform="matrix(0.06172839506172839,0,0,0.06172839506172839,15.987654320987653,0)" xlink:href="#at"/><use transform="matrix(0.06172839506172839,0,0,0.06172839506172839,29.50617283950617,0)" xlink:href="#V"/><use transform="matrix(0.06172839506172839,0,0,0.06172839506172839,41.85185185185185,0)" xlink:href="#Q"/><use transform="matrix(0.06172839506172839,0,0,0.06172839506172839,49.197530864197525,0)" xlink:href="#N"/><use transform="matrix(0.06172839506172839,0,0,0.06172839506172839,62.716049382716044,0)" xlink:href="#P"/><use transform="matrix(0.06172839506172839,0,0,0.06172839506172839,82.46913580246913,0)" xlink:href="#K"/><use transform="matrix(0.06172839506172839,0,0,0.06172839506172839,94.81481481481481,0)" xlink:href="#O"/></g><g id="C"><use transform="matrix(0.06172839506172839,0,0,0.06172839506172839,0,0)" xlink:href="#R"/><use transform="matrix(0.06172839506172839,0,0,0.06172839506172839,6.172839506172839,0)" xlink:href="#I"/><use transform="matrix(0.06172839506172839,0,0,0.06172839506172839,19.691358024691358,0)" xlink:href="#M"/><use transform="matrix(0.06172839506172839,0,0,0.06172839506172839,27.037037037037038,0)" xlink:href="#N"/></g></defs></g></svg>